<svg xmlns="http://www.w3.org/2000/svg" viewBox="0 0 461 461" width="461" height="461">
<path d="M 320.0 351.5 L 310.0 350.5 L 302.5 339.0 L 298.5 325.0 L 296.5 307.0 L 298.5 288.0 L 302.5 275.0 L 310.5 260.0 L 347.5 221.0 L 358.5 206.0 L 365.5 192.0 L 372.5 165.0 L 372.5 135.0 L 363.5 101.0 L 355.5 85.0 L 340.5 65.0 L 327.0 52.5 L 314.0 43.5 L 280.0 28.5 L 248.0 23.5 L 215.0 26.5 L 189.0 34.5 L 170.0 44.5 L 157.0 54.5 L 138.5 75.0 L 129.5 92.0 L 124.5 110.0 L 122.5 144.0 L 116.5 163.0 L 104.5 181.0 L 90.5 196.0 L 90.5 199.0 L 103.0 207.5 L 110.5 218.0 L 110.5 239.0 L 116.5 247.0 L 121.5 260.0 L 119.5 279.0 L 124.0 283.5 L 132.0 286.5 L 150.0 286.5 L 169.0 282.5 L 187.5 276.0 L 185.5 212.0 L 188.5 199.0 L 194.5 188.0 L 208.0 175.5 L 221.0 170.5 L 238.0 170.5 L 250.0 175.5 L 260.5 187.0 L 264.5 198.0 L 265.5 219.0 L 262.5 232.0 L 253.5 252.0 L 244.5 264.0 L 228.0 279.5 L 208.5 291.0 L 209.5 328.0 L 259.0 328.5 L 265.5 334.0 L 266.5 340.0 L 263.5 346.0 L 260.0 348.5 L 197.0 348.5 L 189.5 342.0 L 188.0 297.5 L 161.0 305.5 L 134.0 307.5 L 123.0 305.5 L 112.0 300.5 L 101.5 291.0 L 99.5 287.0 L 98.5 271.0 L 100.5 261.0 L 90.5 245.0 L 90.5 225.0 L 76.0 214.5 L 71.5 209.0 L 68.5 202.0 L 69.5 191.0 L 75.5 181.0 L 92.5 162.0 L 99.5 149.0 L 102.5 135.0 L 104.5 102.0 L 109.5 85.0 L 118.5 67.0 L 129.5 52.0 L 141.0 40.5 L 155.0 29.5 L 179.0 16.5 L 199.0 9.5 L 226.0 4.5 L 259.0 4.5 L 278.0 7.5 L 299.0 13.5 L 321.0 23.5 L 345.0 40.5 L 363.5 60.0 L 380.5 88.0 L 388.5 110.0 L 393.5 136.0 L 393.5 165.0 L 391.5 178.0 L 384.5 201.0 L 374.5 220.0 L 362.5 236.0 L 333.5 265.0 L 322.5 283.0 L 318.5 299.0 L 318.5 314.0 L 326.5 344.0 L 325.5 347.0 L 320.0 351.5 Z M 113.0 459.5 L 53.5 459.0 L 52.5 372.0 L 54.0 369.5 L 71.0 368.5 L 73.5 370.0 L 73.5 439.0 L 111.0 439.5 L 114.5 445.0 L 113.0 459.5 Z M 209.5 266.0 L 227.5 251.0 L 237.5 237.0 L 242.5 225.0 L 244.5 214.0 L 243.5 202.0 L 241.5 197.0 L 232.0 190.5 L 220.0 192.5 L 212.5 200.0 L 208.5 209.0 L 207.5 261.0 L 209.5 266.0 Z M 140.0 459.5 L 122.0 459.5 L 120.5 458.0 L 120.5 398.0 L 122.0 396.5 L 140.0 396.5 L 141.5 398.0 L 141.5 458.0 L 140.0 459.5 Z" fill="#9629F3" fill-rule="evenodd"/>
<path d="M 276.0 149.5 L 258.0 149.5 L 242.0 142.5 L 231.5 132.0 L 225.5 118.0 L 224.5 105.0 L 226.5 95.0 L 230.5 87.0 L 241.0 75.5 L 249.0 70.5 L 259.0 67.5 L 271.0 67.5 L 289.0 73.5 L 302.5 87.0 L 308.5 102.0 L 308.5 115.0 L 302.5 131.0 L 293.0 141.5 L 276.0 149.5 Z M 361.5 460.0 L 351.0 454.5 L 347.0 459.5 L 331.0 459.5 L 329.5 458.0 L 329.5 371.0 L 333.0 368.5 L 348.0 368.5 L 351.5 371.0 L 351.0 400.5 L 361.0 395.5 L 379.0 396.5 L 387.0 400.5 L 398.5 414.0 L 400.5 421.0 L 400.5 435.0 L 395.5 447.0 L 387.0 455.5 L 374.5 460.0 Z M 275.5 460.0 L 264.0 455.5 L 253.5 443.0 L 250.5 432.0 L 250.5 424.0 L 256.5 408.0 L 266.0 399.5 L 276.0 395.5 L 290.0 395.5 L 300.0 400.5 L 303.0 395.5 L 318.0 395.5 L 321.5 398.0 L 322.5 415.0 L 321.5 459.0 L 303.0 459.5 L 300.0 454.5 L 288.5 460.0 Z M 248.0 459.5 L 188.0 459.5 L 186.5 458.0 L 186.5 371.0 L 188.0 369.5 L 205.0 368.5 L 208.5 371.0 L 208.5 439.0 L 249.0 440.5 L 250.5 450.0 L 248.0 459.5 Z M 369.5 441.0 L 375.0 438.5 L 378.5 433.0 L 379.5 427.0 L 377.5 420.0 L 372.0 414.5 L 360.0 413.5 L 356.0 415.5 L 351.5 422.0 L 351.5 433.0 L 358.0 440.5 L 369.5 441.0 Z M 291.5 441.0 L 298.0 436.5 L 300.5 432.0 L 299.5 421.0 L 291.0 413.5 L 282.0 413.5 L 273.5 421.0 L 273.5 434.0 L 279.0 440.5 L 291.5 441.0 Z M 132.0 391.5 L 123.0 388.5 L 118.5 382.0 L 120.5 373.0 L 128.0 367.5 L 136.0 367.5 L 143.5 375.0 L 142.5 385.0 L 137.0 390.5 L 132.0 391.5 Z" fill="#FDC40F" fill-rule="evenodd"/>
</svg>
